HIERARCHY
ROOT Hips
{
  OFFSET 56.2774 94.2962 33.3688
  CHANNELS 6 Xposition Yposition Zposition Zrotation Xrotation Yrotation
  JOINT spine
  {
    OFFSET 0 7.80059 0.448573
    CHANNELS 3 Zrotation Xrotation Yrotation
    JOINT spine1
    {
      OFFSET 0 10.1364 0
      CHANNELS 3 Zrotation Xrotation Yrotation
      JOINT spine2
      {
        OFFSET 0 9.71251 0
        CHANNELS 3 Zrotation Xrotation Yrotation
        JOINT Neck
        {
          OFFSET 0 24.9361 1.18887
          CHANNELS 3 Zrotation Xrotation Yrotation
          JOINT Head
          {
            OFFSET 0 7.53384 0
            CHANNELS 3 Zrotation Xrotation Yrotation
            End Site
            {
              OFFSET 0 18.2361 -6.01402
            }
          }
        }
        JOINT RightShoulder
        {
          OFFSET -4.08965 10.4888 -0.569457
          CHANNELS 3 Zrotation Xrotation Yrotation
          JOINT RightArm
          {
            OFFSET 0 13.757 0
            CHANNELS 3 Zrotation Xrotation Yrotation
            JOINT RightArmRoll
            {
              OFFSET 0 6.94478 0
              CHANNELS 3 Zrotation Xrotation Yrotation
              JOINT RightForeArm
              {
                OFFSET 0 20.2277 0
                CHANNELS 3 Zrotation Xrotation Yrotation
                JOINT RightForeArmRoll
                {
                  OFFSET 0 7.79312 0
                  CHANNELS 3 Zrotation Xrotation Yrotation
                  JOINT RightHand
                  {
                    OFFSET 0 15.6391 0
                    CHANNELS 3 Zrotation Xrotation Yrotation
                    End Site
                    {
                      OFFSET 0 0 0
                    }
                  }
                }
              }
            }
          }
        }
        JOINT LeftShoulder
        {
          OFFSET 4.08965 10.4888 -0.569457
          CHANNELS 3 Zrotation Xrotation Yrotation
          JOINT LeftArm
          {
            OFFSET 0 13.757 0
            CHANNELS 3 Zrotation Xrotation Yrotation
            JOINT LeftArmRoll
            {
              OFFSET 0 6.94478 0
              CHANNELS 3 Zrotation Xrotation Yrotation
              JOINT LeftForeArm
              {
                OFFSET 0 20.2277 0
                CHANNELS 3 Zrotation Xrotation Yrotation
                JOINT LeftForeArmRoll
                {
                  OFFSET 0 7.79312 0
                  CHANNELS 3 Zrotation Xrotation Yrotation
                  JOINT LeftHand
                  {
                    OFFSET 0 15.6391 0
                    CHANNELS 3 Zrotation Xrotation Yrotation
                    End Site
                    {
                      OFFSET 0 0 0
                    }
                  }
                }
              }
            }
          }
        }
      }
    }
  }
  JOINT RightUpLeg
  {
    OFFSET -6.91416 -1.26788 -1.06358
    CHANNELS 3 Zrotation Xrotation Yrotation
    JOINT RightUpLegRoll
    {
      OFFSET 0 18.3378 0
      CHANNELS 3 Zrotation Xrotation Yrotation
      JOINT RightLeg
      {
        OFFSET 0 -22.7085 0
        CHANNELS 3 Zrotation Xrotation Yrotation
        JOINT RightLegRoll
        {
          OFFSET 0 22.7828 0
          CHANNELS 3 Zrotation Xrotation Yrotation
          JOINT RightFoot
          {
            OFFSET 0 18.9629 0
            CHANNELS 3 Zrotation Xrotation Yrotation
            JOINT RightToeBase
            {
              OFFSET 0 15.852 0
              CHANNELS 3 Zrotation Xrotation Yrotation
              End Site
              {
                OFFSET 0.00671906 7.677 -0.884893
              }
            }
          }
        }
      }
    }
  }
  JOINT LeftUpLeg
  {
    OFFSET 6.91416 -1.26788 -1.06358
    CHANNELS 3 Zrotation Xrotation Yrotation
    JOINT LeftUpLegRoll
    {
      OFFSET 0 18.3379 0
      CHANNELS 3 Zrotation Xrotation Yrotation
      JOINT LeftLeg
      {
        OFFSET 0 22.7084 0
        CHANNELS 3 Zrotation Xrotation Yrotation
        JOINT LeftLegRoll
        {
          OFFSET 0 22.9934 0
          CHANNELS 3 Zrotation Xrotation Yrotation
          JOINT LeftFoot
          {
            OFFSET 0 18.7522 0
            CHANNELS 3 Zrotation Xrotation Yrotation
            JOINT LeftToeBase
            {
              OFFSET 0 15.852 0
              CHANNELS 3 Zrotation Xrotation Yrotation
              End Site
              {
                OFFSET -0.030112 7.67701 -0.884892
              }
            }
          }
        }
      }
    }
  }
}
MOTION
Frames: 7
Frame Time: 0.00208333
50.4145 51.0391 1.09951 0.832823 -9.60945 6.34127 0.546786 -1.33698 -1.33686 1.0549 1.31652 -2.72741 1.08845 2.96065 -2.74653 -45.7063 31.2017 20.2255 22.7637 -26.4867 7.86783 65.5596 2.86546 0.702576 125.795 29.9595 -27.0527 -2.63032e-006 -1.93465e-006 -2.10315e-006 25.4187 25.9788 -6.37342 1.36947e-005 -8.47614e-006 -3 8.02976 -4.95153 0.697797 -89.0807 4.87959 1.88416 -80.6104 5.21826 13.1776 3.28653e-007 -6.80093e-007 -1.6881e-006 -23.8727 65.7098 21.3935 -9.02607e-007 -7.34303e-006 3 -8.02905 -4.95141 -0.697668 158.767 82.4 25.0733 -180 -1.52543e-005 178.611 -17.0808 76.48 19.1611 2.31404e-006 2.91661e-007 1.92859 -23.9342 73.5003 25.5245 8.13649 25.2327 -3.48774 -119.12 75.4104 -70.2246 4.5067e-006 -1.99009e-005 -1.87823 162.637 -76.0225 160.346 5.57605e-007 4.0958e-006 -2.97966 32.0302 73.2768 -26.6312 -8.21905 26.4445 3.52319 
50.4182 51.0416 1.09709 0.83458 -9.61023 6.34178 0.546511 -1.32435 -1.33699 1.05607 1.34175 -2.72821 1.08964 2.98588 -2.74727 -45.6505 31.0219 20.1155 22.795 -26.3574 7.84088 65.4934 2.85846 0.708628 125.842 29.9512 -27.1143 -2.63032e-006 -1.93465e-006 -2.10315e-006 25.4187 26.0947 -6.40529 1.36947e-005 -8.47614e-006 -3 8.02976 -4.95153 0.697797 -89.0437 4.84198 1.89003 -80.6417 5.26489 13.2156 3.28653e-007 -6.80093e-007 -1.6881e-006 -23.8632 65.7343 21.3951 -9.02607e-007 -7.34303e-006 3 -8.02905 -4.95141 -0.697668 158.791 82.3992 25.0467 -180 -1.52543e-005 178.611 -17.0863 76.476 19.1677 2.31404e-006 2.91661e-007 1.92859 -23.9359 73.5038 25.5314 8.13649 25.2327 -3.48774 -119.127 75.411 -70.2183 4.5067e-006 -1.99009e-005 -1.87829 162.635 -76.0251 160.344 5.57605e-007 4.0958e-006 -2.97966 32.0252 73.273 -26.6254 -8.21914 26.4458 3.52345 
50.4187 51.041 1.09231 0.836376 -9.6106 6.34237 0.546143 -1.31196 -1.33712 1.05709 1.36654 -2.72903 1.09066 3.01067 -2.74802 -45.5954 30.8437 20.0073 22.8255 -26.2288 7.81431 65.4296 2.85127 0.7142 125.886 29.9434 -27.1762 -2.63032e-006 -1.93465e-006 -2.10315e-006 25.42 26.2091 -6.43698 1.36947e-005 -8.47614e-006 -3 8.02976 -4.95153 0.697797 -89.0067 4.80462 1.89583 -80.6727 5.31191 13.2534 3.28653e-007 -6.80093e-007 -1.6881e-006 -23.8535 65.7576 21.3961 -9.02607e-007 -7.34303e-006 3 -8.02905 -4.95141 -0.697668 158.813 82.3988 25.0221 -180 -1.52543e-005 178.611 -17.0918 76.4719 19.1742 2.31404e-006 2.91661e-007 1.92859 -23.9375 73.5072 25.5383 8.13649 25.2327 -3.48774 -119.133 75.4119 -70.2134 4.5067e-006 -1.99009e-005 -1.87837 162.633 -76.0282 160.343 5.57605e-007 4.0958e-006 -2.97966 32.0204 73.2689 -26.6194 -8.21923 26.447 3.52371 
50.4281 51.0274 1.13263 0.838201 -9.61069 6.34302 0.545711 -1.29972 -1.33726 1.05799 1.39102 -2.72987 1.09158 3.03514 -2.74877 -45.5409 30.6665 19.9005 22.8556 -26.1008 7.78802 65.3676 2.84394 0.719437 125.93 29.9361 -27.2383 -2.63032e-006 -1.93465e-006 -2.10315e-006 25.4223 26.3223 -6.46857 1.36947e-005 -8.47614e-006 -3 8.02976 -4.95153 0.697797 -88.9699 4.76744 1.90158 -80.7035 5.35921 13.291 3.28653e-007 -6.80093e-007 -1.6881e-006 -23.8439 65.7799 21.3966 -9.02607e-007 -7.34303e-006 3 -8.02905 -4.95141 -0.697668 158.833 82.3986 24.9989 -180 -1.52543e-005 178.612 -17.0972 76.4678 19.1806 2.31404e-006 2.91661e-007 1.92859 -23.9391 73.5106 25.5454 8.13649 25.2327 -3.48774 -119.139 75.4132 -70.2093 4.5067e-006 -1.99009e-005 -1.87846 162.632 -76.0314 160.343 5.57605e-007 4.0958e-006 -2.97966 32.0158 73.2647 -26.6131 -8.21932 26.4482 3.52398 
50.4285 51.0293 1.12253 0.840041 -9.61062 6.34371 0.545242 -1.28757 -1.3374 1.05883 1.41532 -2.7307 1.09243 3.05944 -2.74953 -45.4872 30.4899 19.7948 22.8854 -25.973 7.76194 65.3065 2.83654 0.724483 125.972 29.9289 -27.3005 -2.63032e-006 -1.93465e-006 -2.10315e-006 25.4252 26.4349 -6.50013 1.36947e-005 -8.47614e-006 -3 8.02976 -4.95153 0.697797 -88.9331 4.73035 1.90729 -80.7342 5.40665 13.3285 3.28653e-007 -6.80093e-007 -1.6881e-006 -23.8342 65.8018 21.3968 -9.02607e-007 -7.34303e-006 3 -8.02905 -4.95141 -0.697668 158.853 82.3987 24.9765 -180 -1.52543e-005 178.612 -17.1025 76.4635 19.187 2.31404e-006 2.91661e-007 1.92859 -23.9406 73.5141 25.5524 8.13649 25.2327 -3.48774 -119.144 75.4146 -70.2058 4.5067e-006 -1.99009e-005 -1.87857 162.63 -76.0348 160.342 5.57605e-007 4.0958e-006 -2.97966 32.0112 73.2604 -26.6067 -8.21941 26.4494 3.52426 
50.4214 51.0404 1.09472 0.841886 -9.6105 6.3444 0.544764 -1.27544 -1.33754 1.05965 1.43957 -2.73154 1.09326 3.08369 -2.75029 -45.4342 30.3131 19.6897 22.9152 -25.8452 7.73597 65.2457 2.82912 0.72948 126.014 29.9217 -27.3627 -2.63032e-006 -1.93465e-006 -2.10315e-006 25.4284 26.5473 -6.53176 1.36947e-005 -8.47614e-006 -3 8.02976 -4.95153 0.697797 -88.8962 4.69328 1.913 -80.7649 5.45412 13.366 3.28653e-007 -6.80093e-007 -1.6881e-006 -23.8245 65.8234 21.3969 -9.02607e-007 -7.34303e-006 3 -8.02905 -4.95141 -0.697668 158.873 82.3988 24.9543 -180 -1.52543e-005 178.612 -17.1079 76.4593 19.1934 2.31404e-006 2.91661e-007 1.92859 -23.9423 73.5175 25.5594 8.13649 25.2327 -3.48774 -119.149 75.416 -70.2024 4.5067e-006 -1.99009e-005 -1.87868 162.629 -76.0382 160.342 5.57605e-007 4.0958e-006 -2.97966 32.0066 73.256 -26.6003 -8.21949 26.4506 3.52454 
50.4252 51.0377 1.10224 0.843723 -9.61047 6.34508 0.544305 -1.26326 -1.33767 1.06051 1.46391 -2.73237 1.09413 3.10803 -2.75104 -45.3819 30.1358 19.585 22.9454 -25.7173 7.71005 65.1845 2.82173 0.734573 126.057 29.9144 -27.4248 -2.63032e-006 -1.93465e-006 -2.10315e-006 25.4315 26.66 -6.56353 1.36947e-005 -8.47614e-006 -3 8.02976 -4.95153 0.697797 -88.8594 4.65617 1.91872 -80.7958 5.50148 13.4036 3.28653e-007 -6.80093e-007 -1.6881e-006 -23.8148 65.8454 21.3972 -9.02607e-007 -7.34303e-006 3 -8.02905 -4.95141 -0.697668 158.893 82.3988 24.9318 -180 -1.52543e-005 178.612 -17.1132 76.4551 19.1998 2.31404e-006 2.91661e-007 1.92859 -23.9439 73.5209 25.5665 8.13649 25.2327 -3.48774 -119.154 75.4174 -70.1987 4.5067e-006 -1.99009e-005 -1.87879 162.627 -76.0416 160.341 5.57605e-007 4.0958e-006 -2.97966 32.002 73.2517 -26.5939 -8.21958 26.4518 3.52481 
